<svg width="38" height="38" viewBox="0 0 38 38" fill="none" xmlns="http://www.w3.org/2000/svg">
<g clip-path="url(#clip0)">
<path fill-rule="evenodd" clip-rule="evenodd" d="M19 0.0300293C19.2652 0.0300293 19.5196 0.135386 19.7071 0.322923C19.8946 0.510459 20 0.764813 20 1.03003V5.03003C20 5.29525 19.8946 5.5496 19.7071 5.73714C19.5196 5.92467 19.2652 6.03003 19 6.03003C18.7348 6.03003 18.4804 5.92467 18.2929 5.73714C18.1054 5.5496 18 5.29525 18 5.03003V1.03003C18 0.764813 18.1054 0.510459 18.2929 0.322923C18.4804 0.135386 18.7348 0.0300293 19 0.0300293V0.0300293ZM6 19.03C6 19.2952 5.89464 19.5496 5.70711 19.7371C5.51957 19.9247 5.26522 20.03 5 20.03H1C0.734784 20.03 0.48043 19.9247 0.292893 19.7371C0.105357 19.5496 0 19.2952 0 19.03C0 18.7648 0.105357 18.5105 0.292893 18.3229C0.48043 18.1354 0.734784 18.03 1 18.03H5C5.26522 18.03 5.51957 18.1354 5.70711 18.3229C5.89464 18.5105 6 18.7648 6 19.03ZM38 18.53C38 18.7952 37.8946 19.0496 37.7071 19.2371C37.5196 19.4247 37.2652 19.53 37 19.53H33C32.7348 19.53 32.4804 19.4247 32.2929 19.2371C32.1054 19.0496 32 18.7952 32 18.53C32 18.2648 32.1054 18.0105 32.2929 17.8229C32.4804 17.6354 32.7348 17.53 33 17.53H37C37.2601 17.5299 37.51 17.6311 37.6967 17.8122C37.8834 17.9933 37.9922 18.24 38 18.5V18.53ZM19 32.03C19.2652 32.03 19.5196 32.1354 19.7071 32.3229C19.8946 32.5105 20 32.7648 20 33.03V37.03C20 37.2952 19.8946 37.5496 19.7071 37.7371C19.5196 37.9247 19.2652 38.03 19 38.03C18.7348 38.03 18.4804 37.9247 18.2929 37.7371C18.1054 37.5496 18 37.2952 18 37.03V33.03C18 32.7648 18.1054 32.5105 18.2929 32.3229C18.4804 32.1354 18.7348 32.03 19 32.03ZM32.44 5.56003C32.5337 5.65299 32.6081 5.76359 32.6589 5.88545C32.7097 6.00731 32.7358 6.13802 32.7358 6.27003C32.7358 6.40204 32.7097 6.53275 32.6589 6.65461C32.6081 6.77647 32.5337 6.88707 32.44 6.98003L29.61 9.81003C29.5168 9.90327 29.4061 9.97723 29.2842 10.0277C29.1624 10.0781 29.0319 10.1041 28.9 10.1041C28.7681 10.1041 28.6376 10.0781 28.5158 10.0277C28.3939 9.97723 28.2832 9.90327 28.19 9.81003C28.0968 9.71679 28.0228 9.6061 27.9723 9.48428C27.9219 9.36246 27.8959 9.23189 27.8959 9.10003C27.8959 8.96817 27.9219 8.8376 27.9723 8.71578C28.0228 8.59396 28.0968 8.48327 28.19 8.39003L31 5.56003C31.0933 5.46325 31.2051 5.38626 31.3288 5.33368C31.4525 5.2811 31.5856 5.254 31.72 5.254C31.8544 5.254 31.9875 5.2811 32.1112 5.33368C32.2349 5.38626 32.3467 5.46325 32.44 5.56003ZM9.81 9.81003C9.71704 9.90376 9.60644 9.97815 9.48458 10.0289C9.36272 10.0797 9.23201 10.1058 9.1 10.1058C8.96799 10.1058 8.83728 10.0797 8.71542 10.0289C8.59356 9.97815 8.48296 9.90376 8.39 9.81003L5.56 7.03003C5.36507 6.83907 5.25397 6.5785 5.25116 6.30564C5.24835 6.03277 5.35404 5.76996 5.545 5.57503C5.73596 5.3801 5.99653 5.269 6.26939 5.26619C6.54226 5.26338 6.80507 5.36907 7 5.56003L9.83 8.39003C9.92243 8.48431 9.99528 8.59595 10.0443 8.71853C10.0934 8.8411 10.1177 8.97218 10.1158 9.1042C10.114 9.23621 10.086 9.36655 10.0335 9.4877C9.98101 9.60884 9.90505 9.71839 9.81 9.81003V9.81003ZM32.81 32.08C32.717 32.1738 32.6064 32.2482 32.4846 32.2989C32.3627 32.3497 32.232 32.3758 32.1 32.3758C31.968 32.3758 31.8373 32.3497 31.7154 32.2989C31.5936 32.2482 31.483 32.1738 31.39 32.08L28.57 29.25C28.383 29.0604 28.279 28.8043 28.2809 28.538C28.2828 28.2717 28.3904 28.017 28.58 27.83C28.7696 27.6431 29.0258 27.5391 29.2921 27.5409C29.5584 27.5428 29.813 27.6504 30 27.84L32.83 30.67C33.011 30.8626 33.1085 31.1191 33.101 31.3833C33.0935 31.6475 32.9817 31.898 32.79 32.08H32.81ZM9.81 28.19C9.90373 28.283 9.97812 28.3936 10.0289 28.5155C10.0797 28.6373 10.1058 28.768 10.1058 28.9C10.1058 29.032 10.0797 29.1627 10.0289 29.2846C9.97812 29.4065 9.90373 29.5171 9.81 29.61L7 32.43C6.90704 32.5238 6.79644 32.5982 6.67458 32.6489C6.55272 32.6997 6.42201 32.7258 6.29 32.7258C6.15799 32.7258 6.02728 32.6997 5.90542 32.6489C5.78356 32.5982 5.67296 32.5238 5.58 32.43C5.39375 32.2427 5.28921 31.9892 5.28921 31.725C5.28921 31.4608 5.39375 31.2074 5.58 31.02L8.41 28.19C8.59693 28.0068 8.84825 27.9042 9.11 27.9042C9.37175 27.9042 9.62307 28.0068 9.81 28.19V28.19ZM19 28.5C17.1198 28.5 15.2819 27.9421 13.719 26.8969C12.1561 25.8517 10.9385 24.3662 10.2203 22.6286C9.50217 20.8909 9.3158 18.9792 9.68479 17.1356C10.0538 15.292 10.9616 13.5993 12.2932 12.2719C13.6248 10.9445 15.3203 10.0421 17.1651 9.67893C19.0099 9.31576 20.921 9.50818 22.6563 10.2318C24.3917 10.9554 25.8733 12.1778 26.9136 13.744C27.9538 15.3102 28.5059 17.1498 28.5 19.03C28.4921 21.5444 27.4877 23.953 25.7069 25.7282C23.9262 27.5033 21.5144 28.5 19 28.5ZM19 26.5C20.4846 26.5 21.9359 26.0594 23.1699 25.2339C24.4039 24.4085 25.3652 23.2354 25.9319 21.8632C26.4987 20.491 26.6454 18.9815 26.3536 17.5258C26.0618 16.0701 25.3445 14.7338 24.2926 13.6861C23.2407 12.6384 21.9015 11.9265 20.4447 11.6405C18.9879 11.3545 17.4789 11.5073 16.109 12.0796C14.7391 12.6518 13.5699 13.6178 12.7494 14.8551C11.9289 16.0924 11.4941 17.5454 11.5 19.03C11.5079 21.014 12.3016 22.9139 13.7073 24.3139C15.1129 25.714 17.0161 26.5 19 26.5V26.5Z" fill="white"/>
</g>
<defs>
<clipPath id="clip0">
<rect width="38" height="38" fill="white"/>
</clipPath>
</defs>
</svg>
