<svg width="38" height="28" viewBox="0 0 38 28" fill="none" xmlns="http://www.w3.org/2000/svg">
<path d="M34.8745 14.9112C34.8745 14.4142 35.039 14.0828 35.039 13.5858C35.039 8.61538 30.7619 4.47337 25.6623 4.47337H24.8398C24.3463 4.47337 23.8528 4.47337 23.3593 4.63905C21.5498 1.82249 18.2597 0 14.8052 0C9.21212 0 4.60606 4.47337 4.60606 9.94083V10.1065C1.80952 10.9349 0 13.4201 0 16.2367C0 19.8817 2.96104 22.6982 6.74459 22.6982H11.5152C11.5152 25.6805 13.8182 28 16.7792 28H31.0909C31.7489 28 32.5714 27.8343 33.0649 27.6686C36.026 26.6746 38 23.858 38 20.7101C37.671 18.2249 36.5195 16.2367 34.8745 14.9112ZM6.41558 20.3787C4.11255 20.3787 2.13853 18.5562 2.13853 16.4024C2.13853 14.4142 3.78355 12.7574 5.75758 12.426C6.08658 12.426 6.41558 12.2604 6.58009 11.929C6.74459 11.5976 6.90909 11.2663 6.74459 10.9349C6.74459 10.6036 6.58009 10.2722 6.58009 9.94083C6.58009 5.79882 10.0346 2.48521 14.3117 2.48521C17.2727 2.48521 19.9048 4.14201 21.2208 6.62722C21.5498 7.12426 22.0433 7.45562 22.7013 7.28994C23.3593 7.12426 24.0173 6.95858 24.5108 6.95858H25.3333C29.1169 6.95858 32.2424 9.94083 32.2424 13.5858V13.7515C31.5844 13.5858 30.9264 13.4201 30.2684 13.4201H29.7749C29.4459 13.4201 29.1169 13.4201 28.7879 13.4201C27.3074 11.2663 25.0043 9.77515 22.2078 9.77515C17.9307 9.77515 14.4762 13.2544 14.4762 17.7278C13.3247 18.2249 12.3377 19.0533 11.6797 20.213H6.41558V20.3787ZM31.7489 25.5148C31.4199 25.5148 31.0909 25.5148 30.7619 25.5148H16.4502C14.9697 25.5148 13.6537 24.1893 13.6537 22.6982C13.6537 21.2071 14.6407 20.0473 16.1212 19.8817C16.4502 19.8817 16.7792 19.716 16.9437 19.3846C17.1082 19.0533 17.2727 18.7219 17.1082 18.3905C17.1082 18.2249 17.1082 17.8935 17.1082 17.5621C17.1082 14.5799 19.5758 12.0947 22.3723 12.0947C24.3463 12.0947 26.1558 13.2544 27.1429 15.0769C27.4719 15.574 27.9654 15.9053 28.6234 15.7396C29.1169 15.574 29.4459 15.574 29.7749 15.574H30.2684C32.9004 15.574 35.039 17.7278 35.039 20.3787C35.2035 22.8639 33.8874 24.6864 31.7489 25.5148Z" fill="white"/>
</svg>
