<svg width="38" height="39" viewBox="0 0 38 39" fill="none" xmlns="http://www.w3.org/2000/svg">
<path d="M30.0978 6.26172C29.2 4.38991 27.7923 2.80937 26.0365 1.70172C24.2808 0.594067 22.2481 0.00424225 20.1721 2.27982e-05C18.0962 -0.00419665 16.0611 0.577361 14.3009 1.67787C12.5406 2.77838 11.1265 4.35318 10.2211 6.22132C9.88637 6.17433 9.54911 6.14735 9.21114 6.14052C6.77356 6.13516 4.43368 7.09835 2.70626 8.81819C0.978844 10.538 0.00537956 12.8737 2.22293e-05 15.3112C-0.0053351 17.7488 0.957853 20.0887 2.6777 21.8161C4.39754 23.5435 6.73316 24.517 9.17074 24.5224H12.9683C13.3005 24.5224 13.619 24.3904 13.8539 24.1555C14.0887 23.9207 14.2207 23.6021 14.2207 23.27C14.2207 22.9378 14.0887 22.6193 13.8539 22.3844C13.619 22.1495 13.3005 22.0176 12.9683 22.0176H9.17074C7.93801 22.0091 6.73178 21.6589 5.68612 21.006C4.64046 20.3531 3.79635 19.423 3.2476 18.3191C2.69885 17.2152 2.46695 15.9807 2.5777 14.753C2.68845 13.5252 3.13749 12.3522 3.87492 11.3643C4.61235 10.3764 5.60928 9.61236 6.75489 9.15709C7.90051 8.70182 9.14993 8.57315 10.3643 8.78538C11.5786 8.99761 12.7104 9.54243 13.6337 10.3593C14.5569 11.1761 15.2356 12.233 15.5943 13.4125C15.642 13.5716 15.7207 13.7198 15.8257 13.8486C15.9307 13.9774 16.0601 14.0842 16.2064 14.163C16.3527 14.2417 16.5131 14.2909 16.6784 14.3077C16.8437 14.3245 17.0107 14.3086 17.1699 14.2608C17.329 14.2131 17.4772 14.1345 17.606 14.0294C17.7348 13.9244 17.8416 13.7951 17.9204 13.6488C17.9992 13.5025 18.0484 13.3421 18.0651 13.1767C18.0819 13.0114 18.066 12.8444 18.0183 12.6853C17.6258 11.3884 16.9514 10.1943 16.0435 9.1886C15.1355 8.18287 14.0164 7.39032 12.7663 6.86771C13.495 5.54501 14.5655 4.44229 15.866 3.67476C17.1665 2.90724 18.6493 2.50309 20.1594 2.50455C21.5554 2.50402 22.9302 2.84635 24.163 3.50147C25.3957 4.15658 26.4487 5.10442 27.2294 6.26172C26.0576 6.47225 24.9346 6.8968 23.9166 7.51411C23.776 7.60164 23.654 7.71602 23.5577 7.85069C23.4613 7.98537 23.3923 8.13772 23.3548 8.29903C23.3173 8.46034 23.3119 8.62746 23.339 8.79085C23.3661 8.95424 23.4251 9.1107 23.5126 9.25129C23.6002 9.39188 23.7145 9.51386 23.8492 9.61025C23.9839 9.70664 24.1362 9.77556 24.2975 9.81307C24.4589 9.85059 24.626 9.85596 24.7894 9.82889C24.9528 9.80182 25.1092 9.74283 25.2498 9.65529C26.3203 9.0001 27.5499 8.65079 28.805 8.6453C30.5722 8.64744 32.2665 9.35042 33.5161 10.6001C34.7658 11.8497 35.4688 13.544 35.4709 15.3112C35.4614 17.0869 34.7517 18.7872 33.4961 20.0428C32.2405 21.2984 30.5403 22.008 28.7646 22.0176H24.967C24.6349 22.0176 24.3163 22.1495 24.0814 22.3844C23.8466 22.6193 23.7146 22.9378 23.7146 23.27C23.7146 23.6021 23.8466 23.9207 24.0814 24.1555C24.3163 24.3904 24.6349 24.5224 24.967 24.5224H28.7646C31.0926 24.5377 33.3395 23.6675 35.0499 22.088C36.7602 20.5085 37.8061 18.3378 37.9756 16.0159C38.1452 13.6939 37.4256 11.3944 35.9628 9.58317C34.5 7.77198 32.4034 6.58463 30.0978 6.26172V6.26172Z" fill="white"/>
<path d="M18.9878 21.6944C18.7798 21.6953 18.5752 21.7474 18.392 21.846C18.2088 21.9446 18.0527 22.0868 17.9374 22.26C17.1698 23.3508 14.7458 27.0676 14.7458 28.9663C14.7458 30.0914 15.1928 31.1703 15.9883 31.9659C16.7838 32.7614 17.8628 33.2083 18.9878 33.2083C20.1129 33.2083 21.1918 32.7614 21.9873 31.9659C22.7829 31.1703 23.2298 30.0914 23.2298 28.9663C23.2298 27.0676 20.7654 23.3508 20.0382 22.26C19.9229 22.0868 19.7668 21.9446 19.5836 21.846C19.4005 21.7474 19.1959 21.6953 18.9878 21.6944V21.6944ZM18.9878 30.6631C18.5388 30.6599 18.109 30.4802 17.7915 30.1626C17.474 29.8451 17.2942 29.4154 17.291 28.9663C17.291 28.4007 18.0586 26.8656 18.9878 25.29C19.917 26.8656 20.6846 28.4007 20.6846 28.9663C20.6814 29.4154 20.5016 29.8451 20.1841 30.1626C19.8666 30.4802 19.4368 30.6599 18.9878 30.6631V30.6631Z" fill="white"/>
<path d="M9.04958 26.8655C8.84154 26.8665 8.63692 26.9185 8.45375 27.0172C8.27057 27.1158 8.11447 27.258 7.99919 27.4311C7.2316 28.5219 4.80762 32.2387 4.80762 34.1375C4.80762 35.2625 5.25454 36.3415 6.05006 37.137C6.84558 37.9325 7.92454 38.3794 9.04958 38.3794C10.1746 38.3794 11.2536 37.9325 12.0491 37.137C12.8446 36.3415 13.2915 35.2625 13.2915 34.1375C13.2915 32.2387 10.8272 28.5219 10.1 27.4311C9.97827 27.2644 9.82074 27.127 9.63897 27.0291C9.45719 26.9312 9.2558 26.8754 9.04958 26.8655V26.8655ZM9.04958 35.8747C8.60055 35.8715 8.1708 35.6917 7.85328 35.3742C7.53576 35.0567 7.35597 34.6269 7.3528 34.1779C7.3528 33.6123 8.12039 32.0771 9.04958 30.5015C9.97877 32.0771 10.7464 33.6123 10.7464 34.1779C10.7432 34.6269 10.5634 35.0567 10.2459 35.3742C9.92836 35.6917 9.49862 35.8715 9.04958 35.8747V35.8747Z" fill="white"/>
<path d="M28.9263 26.8655C28.7183 26.8665 28.5136 26.9185 28.3305 27.0172C28.1473 27.1158 27.9912 27.258 27.8759 27.4311C27.1083 28.5219 24.6843 32.2387 24.6843 34.1375C24.6843 35.2625 25.1312 36.3415 25.9268 37.137C26.7223 37.9325 27.8013 38.3794 28.9263 38.3794C30.0513 38.3794 31.1303 37.9325 31.9258 37.137C32.7213 36.3415 33.1683 35.2625 33.1683 34.1375C33.1683 32.2387 30.7039 28.5219 29.9767 27.4311C29.855 27.2644 29.6974 27.127 29.5157 27.0291C29.3339 26.9312 29.1325 26.8754 28.9263 26.8655V26.8655ZM28.9263 35.8747C28.4773 35.8715 28.0475 35.6917 27.73 35.3742C27.4125 35.0567 27.2327 34.6269 27.2295 34.1779C27.2295 33.6123 27.9971 32.0771 28.9263 30.5015C29.8555 32.0771 30.6231 33.6123 30.6231 34.1779C30.6286 34.4022 30.5885 34.6253 30.5052 34.8337C30.4219 35.0421 30.2971 35.2313 30.1384 35.39C29.9798 35.5487 29.7905 35.6735 29.5821 35.7568C29.3738 35.8401 29.1506 35.8802 28.9263 35.8747V35.8747Z" fill="white"/>
</svg>
